<svg width="42" height="43" viewBox="0 0 42 43" fill="none" xmlns="http://www.w3.org/2000/svg">
<g clip-path="url(#clip0_0_181)">
<path d="M18.908 20.1679L18.0088 21.0885L11.9165 27.3265V34.084C11.8467 33.6568 11.4834 33.33 11.0466 33.33C10.5603 33.33 10.164 33.7357 10.164 34.2345C10.164 34.7333 10.5603 35.1381 11.0466 35.1381C11.4834 35.1381 11.8469 34.8113 11.9165 34.3848V36.1377H10.1182V26.5635L16.3649 20.1681L12.486 16.1968V8.65314H12.5061C12.5009 8.6899 12.4986 8.72753 12.4986 8.7658C12.4986 9.26438 12.8948 9.66944 13.3812 9.66944C13.8676 9.66944 14.2638 9.26438 14.2638 8.7658C14.2638 8.72753 14.2615 8.6899 14.2563 8.65314H14.284V15.4342L18.9078 20.1681L18.908 20.1679Z" fill="#83FF00"/>
<path d="M12.8285 20.1679L7.60095 25.5199V29.2127C7.53123 28.7855 7.16793 28.4587 6.73113 28.4587C6.24477 28.4587 5.8485 28.8644 5.8485 29.3632C5.8485 29.862 6.24477 30.2668 6.73113 30.2668C7.16793 30.2668 7.53144 29.94 7.60095 29.5135V31.1873H5.80272V24.7575L10.2856 20.1679L7.82124 17.6448V13.2808H7.92981C7.92897 13.2853 7.92897 13.29 7.92897 13.2945C7.92897 13.7931 8.32524 14.1982 8.81244 14.1982C9.17217 14.1982 9.48234 13.9765 9.61947 13.6596V16.8822L12.8285 20.1677V20.1679Z" fill="#83FF00"/>
<path d="M31.8816 26.5633V36.1374H30.0833V34.3845C30.1531 34.8111 30.5164 35.1379 30.9532 35.1379C31.4395 35.1379 31.8358 34.7322 31.8358 34.2342C31.8358 33.7363 31.4395 33.3297 30.9532 33.3297C30.5164 33.3297 30.1529 33.6565 30.0833 34.0837V27.3263L23.991 21.0883L23.0918 20.1676L27.7156 15.4338V8.65268H27.7433C27.7381 8.68944 27.7358 8.72707 27.7358 8.76534C27.7358 9.26392 28.1314 9.66898 28.6184 9.66898C29.1054 9.66898 29.501 9.26392 29.501 8.76534C29.501 8.72707 29.4987 8.68944 29.4935 8.65268H29.5136V16.1964L25.6347 20.1676L31.8814 26.563L31.8816 26.5633Z" fill="#83FF00"/>
<path d="M36.1973 24.7575V31.1873H34.3991V29.5135C34.4688 29.94 34.8321 30.2668 35.2689 30.2668C35.7552 30.2668 36.1515 29.8611 36.1515 29.3632C36.1515 28.8653 35.7552 28.4587 35.2689 28.4587C34.8321 28.4587 34.4686 28.7855 34.3991 29.2127V25.5199L29.1715 20.1679L32.3805 16.8824V13.6598C32.5177 13.9767 32.8278 14.1984 33.1876 14.1984C33.6746 14.1984 34.071 13.7933 34.071 13.2947C34.071 13.2902 34.071 13.2855 34.0702 13.281H34.1788V17.6451L31.7144 20.1681L36.1973 24.7577V24.7575Z" fill="#83FF00"/>
<path d="M23.2006 22.8121H18.7994L15.687 25.9987V30.5046L21 35.9441L26.313 30.5046V25.9987L23.2006 22.8121ZM24.5148 29.7422L21 33.3407L17.4852 29.7422V26.7613L19.5443 24.6532H22.4559L24.515 26.7613V29.7422H24.5148Z" fill="#83FF00"/>
<path d="M24.3632 19.2477H17.6369V21.0887H24.3632V19.2477Z" fill="#83FF00"/>
<path d="M22.3465 11.0433H19.6537L17.749 12.9933V15.7511L19.6537 17.7012H22.3465L24.2512 15.7511V12.9933L22.3465 11.0433ZM22.453 14.9885L21.6019 15.8599H20.3986L19.5474 14.9885V13.7557L20.3986 12.8843H21.6019L22.453 13.7557V14.9885Z" fill="#83FF00"/>
<path d="M13.3814 6.02108C11.9032 6.02108 10.7005 7.25217 10.7005 8.76577C10.7005 9.95794 11.4469 10.9751 12.486 11.3533C12.7661 11.4554 13.0675 11.5105 13.3814 11.5105C13.6954 11.5105 14.0026 11.4537 14.2842 11.3501C15.3197 10.9704 16.0623 9.95472 16.0623 8.76577C16.0623 7.25238 14.8598 6.02108 13.3814 6.02108ZM13.3814 9.66941C12.895 9.66941 12.4988 9.26435 12.4988 8.76577C12.4988 8.7275 12.5011 8.68987 12.5063 8.65311C12.5603 8.20741 12.9326 7.86212 13.3814 7.86212C13.8302 7.86212 14.2025 8.20741 14.2565 8.65311C14.2617 8.68987 14.264 8.7275 14.264 8.76577C14.264 9.26435 13.8684 9.66941 13.3814 9.66941Z" fill="#83FF00"/>
<path d="M8.81244 10.5501C7.33404 10.5501 6.13074 11.7814 6.13074 13.2947C6.13074 14.4499 6.83214 15.4411 7.82103 15.8453C8.12742 15.9704 8.46237 16.0394 8.81223 16.0394C9.09321 16.0394 9.36453 15.9949 9.61926 15.9128C10.7041 15.5606 11.4931 14.5205 11.4931 13.2947C11.4931 11.7814 10.2906 10.5501 8.81223 10.5501H8.81244ZM9.61947 13.6598C9.48234 13.9767 9.17217 14.1984 8.81244 14.1984C8.32545 14.1984 7.92897 13.7933 7.92897 13.2947C7.92897 13.2902 7.92897 13.2855 7.92981 13.281C7.93653 12.7893 8.32986 12.3911 8.81244 12.3911C9.29502 12.3911 9.69507 12.7968 9.69507 13.2947C9.69507 13.4244 9.66819 13.5487 9.61947 13.6598Z" fill="#83FF00"/>
<path d="M7.60095 26.7666C7.32816 26.6699 7.03521 26.6179 6.73113 26.6179C6.40437 26.6179 6.0921 26.6776 5.80272 26.7881C4.78065 27.1756 4.05027 28.1835 4.05027 29.3632C4.05027 30.8768 5.25294 32.1079 6.73113 32.1079C8.20932 32.1079 9.41199 30.8768 9.41199 29.3632C9.41199 28.1611 8.65368 27.1371 7.60095 26.7666ZM7.60095 29.5137C7.53123 29.9403 7.16793 30.2671 6.73113 30.2671C6.24477 30.2671 5.8485 29.8613 5.8485 29.3634C5.8485 28.8655 6.24477 28.4589 6.73113 28.4589C7.16793 28.4589 7.53144 28.7857 7.60095 29.2129C7.60914 29.2613 7.61376 29.3118 7.61376 29.3632C7.61376 29.4146 7.60935 29.4645 7.60095 29.5135V29.5137Z" fill="#83FF00"/>
<path d="M11.9167 31.6377C11.6439 31.5409 11.3509 31.4889 11.0468 31.4889C10.7201 31.4889 10.4078 31.5487 10.1184 31.6592C9.09636 32.0466 8.36598 33.0545 8.36598 34.2342C8.36598 35.7478 9.56844 36.9789 11.0468 36.9789C12.5252 36.9789 13.7277 35.7478 13.7277 34.2342C13.7277 33.0322 12.9694 32.0081 11.9167 31.6377ZM11.9167 34.3847C11.8469 34.8113 11.4836 35.1381 11.0468 35.1381C10.5605 35.1381 10.1642 34.7324 10.1642 34.2345C10.1642 33.7365 10.5605 33.3299 11.0468 33.3299C11.4836 33.3299 11.8472 33.6567 11.9167 34.084C11.9249 34.1323 11.9295 34.1829 11.9295 34.2342C11.9295 34.2856 11.9251 34.3355 11.9167 34.3845V34.3847Z" fill="#83FF00"/>
<path d="M28.6186 6.02108C27.1404 6.02108 25.9377 7.25217 25.9377 8.76577C25.9377 9.95472 26.6803 10.9704 27.7158 11.3501C27.9976 11.4537 28.3017 11.5105 28.6186 11.5105C28.9355 11.5105 29.2337 11.4552 29.514 11.3533C30.5533 10.9751 31.2994 9.95794 31.2994 8.76577C31.2994 7.25238 30.0968 6.02108 28.6186 6.02108ZM28.6186 9.66941C28.1316 9.66941 27.736 9.26435 27.736 8.76577C27.736 8.7275 27.7383 8.68987 27.7435 8.65311C27.7975 8.20741 28.1692 7.86212 28.6186 7.86212C29.068 7.86212 29.4399 8.20741 29.4937 8.65311C29.4989 8.68987 29.5012 8.7275 29.5012 8.76577C29.5012 9.26435 29.1049 9.66941 28.6186 9.66941Z" fill="#83FF00"/>
<path d="M33.1876 10.5501C31.7094 10.5501 30.5067 11.7814 30.5067 13.2947C30.5067 14.5207 31.2957 15.5608 32.3805 15.9128C32.6353 15.9949 32.9066 16.0394 33.1876 16.0394C33.5374 16.0394 33.8724 15.9704 34.1788 15.8453C35.1679 15.4411 35.8691 14.4499 35.8691 13.2947C35.8691 11.7814 34.6657 10.5501 33.1873 10.5501H33.1876ZM33.1876 14.1984C32.8278 14.1984 32.5177 13.9767 32.3805 13.6598C32.3318 13.5487 32.3049 13.4244 32.3049 13.2947C32.3049 12.7968 32.7012 12.3911 33.1876 12.3911C33.6739 12.3911 34.0635 12.7893 34.0702 13.281C34.071 13.2855 34.071 13.2902 34.071 13.2947C34.071 13.7933 33.6748 14.1984 33.1876 14.1984Z" fill="#83FF00"/>
<path d="M36.1973 26.7879C35.9081 26.6774 35.5956 26.6176 35.2689 26.6176C34.9646 26.6176 34.6716 26.6699 34.3991 26.7664C33.3463 27.1369 32.588 28.1609 32.588 29.363C32.588 30.8766 33.7907 32.1077 35.2689 32.1077C36.7471 32.1077 37.9497 30.8766 37.9497 29.363C37.9497 28.1833 37.2191 27.1751 36.1973 26.7879ZM34.3991 29.2127C34.4688 28.7855 34.8321 28.4587 35.2689 28.4587C35.7552 28.4587 36.1515 28.8644 36.1515 29.3632C36.1515 29.862 35.7552 30.2668 35.2689 30.2668C34.8321 30.2668 34.4686 29.94 34.3991 29.5135C34.3909 29.4645 34.3862 29.4146 34.3862 29.3632C34.3862 29.3118 34.3907 29.2611 34.3991 29.2129V29.2127Z" fill="#83FF00"/>
<path d="M31.8816 31.6592C31.5924 31.5487 31.2799 31.4889 30.9532 31.4889C30.6489 31.4889 30.3559 31.5411 30.0833 31.6377C29.0306 32.0081 28.2723 33.0322 28.2723 34.2342C28.2723 35.7478 29.4748 36.9789 30.9532 36.9789C32.4316 36.9789 33.634 35.7478 33.634 34.2342C33.634 33.0545 32.9034 32.0464 31.8816 31.6592ZM30.0833 34.084C30.1531 33.6567 30.5164 33.3299 30.9532 33.3299C31.4395 33.3299 31.8358 33.7357 31.8358 34.2345C31.8358 34.7333 31.4395 35.1381 30.9532 35.1381C30.5164 35.1381 30.1529 34.8113 30.0833 34.3847C30.0752 34.3357 30.0705 34.2858 30.0705 34.2345C30.0705 34.1831 30.0749 34.1323 30.0833 34.0842V34.084Z" fill="#83FF00"/>
<path d="M1.8753 39.0298V28.9689H0V39.0298C0 41.2226 1.73628 43 3.87786 43H13.7048V41.0801H3.87786C2.77179 41.0801 1.8753 40.1622 1.8753 39.0298Z" fill="white"/>
<path d="M0 3.97019V14.0311H1.8753V3.97019C1.8753 2.83779 2.77179 1.91995 3.87786 1.91995H13.7048V0H3.87786C1.73628 0 0 1.77762 0 3.97019Z" fill="white"/>
<path d="M38.1221 0H28.2952V1.91995H38.1221C39.2282 1.91995 40.1247 2.838 40.1247 3.97019V14.0311H42V3.97019C42 1.77762 40.2637 0 38.1221 0Z" fill="white"/>
<path d="M40.1247 39.0298C40.1247 40.1622 39.228 41.0801 38.1221 41.0801H28.2952V43H38.1221C40.2639 43 42 41.2224 42 39.0298V28.9689H40.1247V39.0298Z" fill="white"/>
</g>
<defs>
<clipPath id="clip0_0_181">
<rect width="42" height="43" fill="white"/>
</clipPath>
</defs>
</svg>
